#tb 0: 1/32000
#media_type 0: audio
#codec_id 0: pcm_s16le
#sample_rate 0: 32000
#channel_layout_name 0: stereo
0,          0,          0,     1078,     4312, 0xf7ff137f
0,       1078,       1078,     1064,     4256, 0xe1251319
0,       2142,       2142,     1078,     4312, 0xc2a7135b
0,       3220,       3220,     1064,     4256, 0x57ad1312
0,       4284,       4284,     1064,     4256, 0x847814ca
0,       5348,       5348,     1078,     4312, 0xfc951330
0,       6426,       6426,     1064,     4256, 0xb67612f0
0,       7490,       7490,     1064,     4256, 0xf4d112f1
0,       8554,       8554,     1078,     4312, 0x9aba1378
0,       9632,       9632,     1064,     4256, 0x6c1c12af
0,      10696,      10696,     1064,     4256, 0x42a81320
0,      11760,      11760,     1078,     4312, 0xce54133d
0,      12838,      12838,     1064,     4256, 0xd431ce59
0,      13902,      13902,     1064,     4256, 0x6097f2aa
0,      14966,      14966,     1078,     4312, 0x09f656be
0,      16044,      16044,     1064,     4256, 0xec2fd03e
0,      17108,      17108,     1064,     4256, 0xcba81b0a
0,      18172,      18172,     1078,     4312, 0x3726f895
0,      19250,      19250,     1064,     4256, 0x06284b24
0,      20314,      20314,     1064,     4256, 0xd1a26455
0,      21378,      21378,     1078,     4312, 0xd0875964
0,      22456,      22456,     1064,     4256, 0x0bd3318d
0,      23520,      23520,     1064,     4256, 0x46be27e3
0,      24584,      24584,     1078,     4312, 0xfbaaec70
0,      25662,      25662,     1064,     4256, 0x63775059
0,      26726,      26726,     1064,     4256, 0x96c70c26
0,      27790,      27790,     1078,     4312, 0xef31fd14
0,      28868,      28868,     1064,     4256, 0x84eae674
0,      29932,      29932,     1064,     4256, 0x6a200adb
0,      30996,      30996,     1078,     4312, 0xcf368a1e
0,      32074,      32074,     1064,     4256, 0xcf5597c7
0,      33138,      33138,     1064,     4256, 0xc4ffefb6
0,      34202,      34202,     1078,     4312, 0x3f458b83
0,      35280,      35280,     1064,     4256, 0x5b81d64d
0,      36344,      36344,     1064,     4256, 0x7bd8ad1c
0,      37408,      37408,     1078,     4312, 0x22937bcc
0,      38486,      38486,     1064,     4256, 0xa824527b
0,      39550,      39550,     1064,     4256, 0x9f1a6183
0,      40614,      40614,     1078,     4312, 0x82e669f9
0,      41692,      41692,     1064,     4256, 0xa522b247
0,      42756,      42756,     1064,     4256, 0x19ce8735
0,      43820,      43820,     1078,     4312, 0x07985e76
0,      44898,      44898,     1064,     4256, 0x2d417757
0,      45962,      45962,     1064,     4256, 0x82b807e3
0,      47026,      47026,     1078,     4312, 0x7577f1b7
0,      48104,      48104,     1064,     4256, 0x5f841e86
0,      49168,      49168,     1064,     4256, 0xdcb5370a
0,      50232,      50232,     1078,     4312, 0xf5cecab9
0,      51310,      51310,     1064,     4256, 0xbe1e17b4
0,      52374,      52374,     1064,     4256, 0xaf485475
0,      53438,      53438,     1078,     4312, 0xbc832fca
0,      54516,      54516,     1064,     4256, 0x4ee08d32
0,      55580,      55580,     1064,     4256, 0x68134268
0,      56644,      56644,     1078,     4312, 0x915b45cb
0,      57722,      57722,     1064,     4256, 0x6ca25805
0,      58786,      58786,     1064,     4256, 0x2a00d95c
0,      59850,      59850,     1078,     4312, 0x688e55eb
0,      60928,      60928,     1064,     4256, 0x80ec811d
0,      61992,      61992,     1064,     4256, 0x1b72ad9f
0,      63056,      63056,     1078,     4312, 0x1a37de26
0,      64134,      64134,     1064,     4256, 0xa683021f
0,      65198,      65198,     1064,     4256, 0xa7c29f06
0,      66262,      66262,     1078,     4312, 0x0cf31df3
0,      67340,      67340,     1064,     4256, 0xd7a8b18b
0,      68404,      68404,     1064,     4256, 0xe1f282aa
0,      69468,      69468,     1078,     4312, 0x60764ac5
0,      70546,      70546,     1064,     4256, 0xf6be99a9
0,      71610,      71610,     1064,     4256, 0xe186c4da
0,      72674,      72674,     1078,     4312, 0x784349b6
0,      73752,      73752,     1064,     4256, 0x58585cd2
0,      74816,      74816,     1064,     4256, 0xc3141cb1
